{
    "asset" : {
        "generator" : "Khronos glTF Blender I/O v1.8.19",
        "version" : "2.0"
    },
    "scene" : 0,
    "scenes" : [
        {
            "name" : "Scene",
            "nodes" : [
                6
            ]
        }
    ],
    "nodes" : [
        {
            "mesh" : 0,
            "name" : "defaultMaterial.001"
        },
        {
            "children" : [
                0
            ],
            "name" : "glass3"
        },
        {
            "mesh" : 1,
            "name" : "defaultMaterial"
        },
        {
            "children" : [
                2
            ],
            "name" : "glassTop"
        },
        {
            "mesh" : 2,
            "name" : "defaultMaterial.002",
            "translation" : [
                0,
                0.4399999976158142,
                0
            ]
        },
        {
            "children" : [
                4
            ],
            "name" : "midComb_light_bottom"
        },
        {
            "children" : [
                1,
                3,
                5
            ],
            "name" : "Old Flashlight",
            "scale" : [
                0.132548987865448,
                0.13254901766777039,
                0.13254901766777039
            ]
        }
    ],
    "meshes" : [
        {
            "name" : "defaultMaterial.001",
            "primitives" : [
                {
                    "attributes" : {
                        "POSITION" : 0,
                        "NORMAL" : 1,
                        "TEXCOORD_0" : 2
                    },
                    "indices" : 3
                }
            ]
        },
        {
            "name" : "defaultMaterial",
            "primitives" : [
                {
                    "attributes" : {
                        "POSITION" : 4,
                        "NORMAL" : 5,
                        "TEXCOORD_0" : 6
                    },
                    "indices" : 7
                }
            ]
        },
        {
            "name" : "defaultMaterial.002",
            "primitives" : [
                {
                    "attributes" : {
                        "POSITION" : 8,
                        "NORMAL" : 9,
                        "TEXCOORD_0" : 10
                    },
                    "indices" : 11
                }
            ]
        }
    ],
    "accessors" : [
        {
            "bufferView" : 0,
            "componentType" : 5126,
            "count" : 68,
            "max" : [
                0.05005029961466789,
                0.9651470184326172,
                0.049210499972105026
            ],
            "min" : [
                -0.04803130030632019,
                0.8252230286598206,
                -0.049126800149679184
            ],
            "type" : "VEC3"
        },
        {
            "bufferView" : 1,
            "componentType" : 5126,
            "count" : 68,
            "type" : "VEC3"
        },
        {
            "bufferView" : 2,
            "componentType" : 5126,
            "count" : 68,
            "type" : "VEC2"
        },
        {
            "bufferView" : 3,
            "componentType" : 5123,
            "count" : 324,
            "type" : "SCALAR"
        },
        {
            "bufferView" : 4,
            "componentType" : 5126,
            "count" : 146,
            "max" : [
                0.13780300319194794,
                0.9687770009040833,
                0.13839000463485718
            ],
            "min" : [
                -0.13787299394607544,
                0.9597749710083008,
                -0.13826100528240204
            ],
            "type" : "VEC3"
        },
        {
            "bufferView" : 5,
            "componentType" : 5126,
            "count" : 146,
            "type" : "VEC3"
        },
        {
            "bufferView" : 6,
            "componentType" : 5126,
            "count" : 146,
            "type" : "VEC2"
        },
        {
            "bufferView" : 7,
            "componentType" : 5123,
            "count" : 564,
            "type" : "SCALAR"
        },
        {
            "bufferView" : 8,
            "componentType" : 5126,
            "count" : 665,
            "max" : [
                0.16935500502586365,
                0.9887310266494751,
                0.16935500502586365
            ],
            "min" : [
                -0.16935500502586365,
                -0.44209399819374084,
                -0.16935400664806366
            ],
            "type" : "VEC3"
        },
        {
            "bufferView" : 9,
            "componentType" : 5126,
            "count" : 665,
            "type" : "VEC3"
        },
        {
            "bufferView" : 10,
            "componentType" : 5126,
            "count" : 665,
            "type" : "VEC2"
        },
        {
            "bufferView" : 11,
            "componentType" : 5123,
            "count" : 2634,
            "type" : "SCALAR"
        }
    ],
    "bufferViews" : [
        {
            "buffer" : 0,
            "byteLength" : 816,
            "byteOffset" : 0
        },
        {
            "buffer" : 0,
            "byteLength" : 816,
            "byteOffset" : 816
        },
        {
            "buffer" : 0,
            "byteLength" : 544,
            "byteOffset" : 1632
        },
        {
            "buffer" : 0,
            "byteLength" : 648,
            "byteOffset" : 2176
        },
        {
            "buffer" : 0,
            "byteLength" : 1752,
            "byteOffset" : 2824
        },
        {
            "buffer" : 0,
            "byteLength" : 1752,
            "byteOffset" : 4576
        },
        {
            "buffer" : 0,
            "byteLength" : 1168,
            "byteOffset" : 6328
        },
        {
            "buffer" : 0,
            "byteLength" : 1128,
            "byteOffset" : 7496
        },
        {
            "buffer" : 0,
            "byteLength" : 7980,
            "byteOffset" : 8624
        },
        {
            "buffer" : 0,
            "byteLength" : 7980,
            "byteOffset" : 16604
        },
        {
            "buffer" : 0,
            "byteLength" : 5320,
            "byteOffset" : 24584
        },
        {
            "buffer" : 0,
            "byteLength" : 5268,
            "byteOffset" : 29904
        }
    ],
    "buffers" : [
        {
            "byteLength" : 35172,
            "uri" : "data:application/octet-stream;base64,"
        }
    ]
}
