{
    "asset" : {
        "generator" : "Khronos glTF Blender I/O v1.8.19",
        "version" : "2.0"
    },
    "scene" : 0,
    "scenes" : [
        {
            "name" : "Scene",
            "nodes" : [
                4
            ]
        }
    ],
    "nodes" : [
        {
            "name" : "Cube.1543",
            "rotation" : [
                -0.7071068286895752,
                0,
                0,
                0.7071067094802856
            ],
            "scale" : [
                100,
                100,
                100
            ],
            "translation" : [
                -505.33526611328125,
                312.38043212890625,
                -382.9511413574219
            ]
        },
        {
            "name" : "Cylinder.596",
            "rotation" : [
                -0.7071068286895752,
                0,
                0,
                0.7071067094802856
            ],
            "scale" : [
                100,
                100,
                100
            ],
            "translation" : [
                -503.935791015625,
                271.68316650390625,
                -381.0632019042969
            ]
        },
        {
            "mesh" : 0,
            "name" : "Cylinder.597_Material.036_0",
            "translation" : [
                -0.47999998927116394,
                -0.16999998688697815,
                0.030000001192092896
            ]
        },
        {
            "children" : [
                2
            ],
            "name" : "Cylinder.597",
            "rotation" : [
                -0.7071068286895752,
                0,
                0,
                0.7071067094802856
            ],
            "scale" : [
                100,
                100,
                100
            ],
            "translation" : [
                -437.6156005859375,
                288.24859619140625,
                -420.7195739746094
            ]
        },
        {
            "children" : [
                0,
                1,
                3
            ],
            "name" : "Trash Can and Garbage Bag low poly",
            "scale" : [
                0.009999999776482582,
                0.010000001639127731,
                0.010000001639127731
            ],
            "translation" : [
                4.830000400543213,
                -2.1600003242492676,
                4.009999752044678
            ]
        }
    ],
    "materials" : [
        {
            "doubleSided" : true,
            "name" : "Material.036",
            "pbrMetallicRoughness" : {
                "baseColorFactor" : [
                    0.07563800364732742,
                    0.07563800364732742,
                    0.07563800364732742,
                    1
                ],
                "metallicFactor" : 0,
                "roughnessFactor" : 0.9830868244171143
            }
        }
    ],
    "meshes" : [
        {
            "name" : "Cylinder.597_Material.036_0",
            "primitives" : [
                {
                    "attributes" : {
                        "POSITION" : 0,
                        "NORMAL" : 1,
                        "TEXCOORD_0" : 2
                    },
                    "indices" : 3,
                    "material" : 0
                }
            ]
        }
    ],
    "accessors" : [
        {
            "bufferView" : 0,
            "componentType" : 5126,
            "count" : 610,
            "max" : [
                0.38176819682121277,
                0.35291787981987,
                0.19393879175186157
            ],
            "min" : [
                -0.3974494934082031,
                -0.3941234052181244,
                -0.7292585968971252
            ],
            "type" : "VEC3"
        },
        {
            "bufferView" : 1,
            "componentType" : 5126,
            "count" : 610,
            "type" : "VEC3"
        },
        {
            "bufferView" : 2,
            "componentType" : 5126,
            "count" : 610,
            "type" : "VEC2"
        },
        {
            "bufferView" : 3,
            "componentType" : 5123,
            "count" : 858,
            "type" : "SCALAR"
        }
    ],
    "bufferViews" : [
        {
            "buffer" : 0,
            "byteLength" : 7320,
            "byteOffset" : 0
        },
        {
            "buffer" : 0,
            "byteLength" : 7320,
            "byteOffset" : 7320
        },
        {
            "buffer" : 0,
            "byteLength" : 4880,
            "byteOffset" : 14640
        },
        {
            "buffer" : 0,
            "byteLength" : 1716,
            "byteOffset" : 19520
        }
    ],
    "buffers" : [
        {
            "byteLength" : 21236,
            "uri" : "data:application/octet-stream;base64,"
        }
    ]
}
